<?xml version="1.0" standalone="no"?>
<!DOCTYPE svg PUBLIC "-//W3C//DTD SVG 20010904//EN"
 "http://www.w3.org/TR/2001/REC-SVG-20010904/DTD/svg10.dtd">
<svg version="1.0" xmlns="http://www.w3.org/2000/svg"
 width="1000.000000pt" height="1000.000000pt" viewBox="0 0 1000.000000 1000.000000"
 preserveAspectRatio="xMidYMid meet">
<metadata>
Created by potrace 1.14, written by Peter Selinger 2001-2017
</metadata>
<g transform="translate(0.000000,1000.000000) scale(0.100000,-0.100000)"
fill="#000000" stroke="none">
<path d="M3120 5355 l0 -1045 175 0 175 0 0 -170 0 -170 345 0 345 0 0 170 0
170 345 0 345 0 0 -170 0 -170 345 0 345 0 0 -175 0 -175 -175 0 -175 0 2
-172 3 -173 348 -3 347 -2 0 175 0 175 173 2 172 3 3 173 2 172 170 0 170 0 0
170 0 170 175 0 175 0 0 175 0 175 -175 0 -175 0 0 -170 0 -170 -170 0 -170 0
0 690 0 690 -695 0 -695 0 0 -170 0 -170 -175 0 -175 0 0 -350 0 -350 -170 0
-170 0 0 -170 0 -170 -175 0 -175 0 2 518 3 517 173 3 172 2 0 170 0 170 -172
2 -173 3 -3 348 -2 347 -345 0 -345 0 0 -1045z m2420 -515 l0 -520 -175 0
-175 0 0 513 c0 283 3 517 7 520 3 4 82 7 175 7 l168 0 0 -520z"/>
</g>
</svg>
